<?xml version="1.0" encoding="utf-8"?>
<!-- Generator: Adobe Illustrator 26.1.0, SVG Export Plug-In . SVG Version: 6.00 Build 0)  -->
<svg version="1.1" id="Layer_1" xmlns="http://www.w3.org/2000/svg" xmlns:xlink="http://www.w3.org/1999/xlink" x="0px" y="0px"
	 viewBox="0 0 1366 275.4" style="enable-background:new 0 0 1366 275.4;" xml:space="preserve">
<style type="text/css">
	.st0{fill:#6A65FF;}
	.st1{fill:#ED1C24;}
	.st2{fill:#FFFFFF;}
</style>
<path class="st0" d="M341.9,19.5c-5.1-5.6-12.3-8.3-21.4-8.3c-10.9,0-22.1,3.8-33.4,11.3c-11.4,7.6-22.8,17.3-34,29
	c-11.2,11.7-22.2,24.8-33.1,39c-10.9,14.3-21.2,28.2-31,41.6c-2.8,3.6-5.3,7.1-7.7,10.3c-2.4,3.2-4.6,6.3-6.7,9.3
	C130,211.3,91.6,241,59.2,241c-6.6,0-12.2-0.8-16.7-2.4c-4.4-1.6-8.1-3.7-10.9-6.4c-2.8-2.7-4.8-5.6-6.1-8.9
	c-1.3-3.3-1.9-6.6-1.9-9.8c0-4.3,0.9-8.5,2.8-12.6c2-4.2,4.6-7.9,8-11.1c3-3,6.9-5.7,11.9-8.1c4.9-2.5,11.4-3.7,19.5-3.7
	c1.9,0,4.7,0.2,8.3,0.6c3.6,0.4,7.3,1.5,11.1,3.1c3.7,1.6,7.2,3.9,10.4,7c3.2,3.1,5.4,7.4,6.7,13c0.6,2.1,1.8,3.8,3.5,4.9
	c1.7,1.2,3.7,1.6,6.1,1.1c2.4-0.4,4.2-1.6,5.4-3.6c1.3-2,1.7-4.1,1.3-6.3c-2.8-11.1-8.8-20-18.2-26.7c-9.4-6.7-20.9-10.1-34.6-10.1
	c-8.1,0-16,1.5-23.5,4.3c-7.6,2.9-14.1,7.1-19.4,12.7c-4.9,4.9-8.8,10.5-11.5,16.8c-2.8,6.3-4.2,12.5-4.2,18.7
	c0,5.6,1,10.9,3.1,16.2c2,5.2,5.2,9.9,9.4,14.1c4.3,4.2,9.7,7.5,16.2,10c6.5,2.4,14.2,3.6,23.2,3.6c19.4,0,39.6-7.8,60.5-23.5
	c20.9-15.7,43.4-39.8,67.6-72.2c2.4-3,4.8-6.1,7.2-9.5c2.4-3.3,4.9-6.8,7.5-10.4c8.8-12.1,18.2-24.9,28.3-38.4
	c10.1-13.4,20.4-25.8,30.7-37.1c10.4-11.3,20.6-20.6,30.8-28c10.1-7.4,19.7-11,28.6-11c1.5,0,3.1,0.3,4.8,0.8
	c1.7,0.5,3.1,1.3,4.2,2.4c0.8,1.1,1.3,2.6,1.4,4.6c0.1,2,0,4.8-0.5,8.2c-0.2,2.1,0.3,4.1,1.5,5.9c1.2,1.8,2.9,2.8,5.2,3
	c2.4,0.7,4.4,0.3,6.3-1.1s2.9-3.2,3.3-5.6C348.7,34.7,347.1,26.1,341.9,19.5z"/>
<path class="st0" d="M509.5,161.6c-24.8,32.6-47.5,56.7-68.2,72.4c-20.7,15.6-40.6,23.3-59.9,23.3c-9,0-16.7-1.2-23.2-3.6
	c-6.5-2.5-11.9-5.8-16.2-10c-4.3-4.1-7.4-8.8-9.4-14.1c-2-5.2-3.1-10.6-3.1-16.2c0-2.3,0.2-4.7,0.6-7c0-1.6,0.2-3.4,0.6-5.2
	c1.3-6,3.9-12.9,7.9-20.8c4-7.9,9.2-16.8,15.7-26.7c6.5-9.9,13.8-20.9,21.9-33.1c6.8-10.1,13.4-20,19.8-29.9
	c6.4-9.9,12-19.2,16.7-27.7c3.2-6,5.5-11,7-15c1.5-4.1,2.4-7.3,2.9-9.8c0.4-2.4,0.6-4.3,0.5-5.4c-0.1-1.2-0.3-2-0.5-2.4
	c-0.8-1.1-2.4-1.9-4.5-2.4c-2.1-0.5-3.7-0.8-4.8-0.8c-7,0-16.7,5-29,15c-12.3,10.1-26.4,24.2-42.4,42.6
	c-16,18.3-33.4,40.4-52.3,66.1c-18.9,25.7-38.4,54.2-58.4,85.3c-1.7,2.6-4.1,3.9-7.3,3.9c-1.1,0-2.5-0.5-4.2-1.6
	c-2.1-1.1-3.3-2.7-3.7-4.8c-0.3-2.1,0-4.2,1.1-6.1c3.9-5.8,9-13.6,15.6-23.4c6.5-9.8,13.9-20.6,22.2-32.5
	c8.3-11.8,17.3-24.3,27-37.4c9.7-13.1,19.7-26,30-38.6c23-28.8,42.9-50.1,59.5-63.9C388,18,402,11.1,413.3,11.1
	c12,0,19.7,3.7,23.4,11.2c2.8,4.9,3.5,10.7,2.2,17.4c-1.3,6.7-4,14.5-8.3,23.4c-4.3,8.9-9.9,18.8-17,29.9c-7,11.1-15,23.3-24,36.8
	c-6.6,9.6-12.8,18.9-18.5,27.8c-1.5,2.3-2.9,4.5-4.2,6.7c-4,6.4-7.6,12.5-10.9,18.3c-3,5.3-5.1,9.7-6.4,12.9c-1.3,3.3-2.1,6-2.5,7.9
	c-0.4,1.5-0.6,2.7-0.6,3.7c-0.4,2.1-0.7,4.1-0.7,6.2c0,3.2,0.7,6.4,2,9.8c0.4,1,0.8,2,1.4,2.9c1.2,2.2,2.8,4.1,4.7,6
	c2.8,2.7,6.5,4.8,11.1,6.4c4.6,1.6,10.1,2.4,16.5,2.4c16,0,33.4-7.3,52.3-22.1c18.9-14.7,39.8-37.1,62.9-67.2
	c1.2-1.7,3.1-2.8,5.4-3.2c2.4-0.4,4.4,0.1,6.1,1.6c1.9,1.5,3,3.3,3.2,5.5C511.6,157.7,511,159.7,509.5,161.6z"/>
<path class="st0" d="M861.8,35l-9,15.2c-3.4-1.8-6.7-3.3-9.9-4.4l0.1-0.2l-2-0.5l-0.2-0.1c-2.6-0.8-5.1-1.4-7.7-1.9l-3.2-0.8
	c-0.1,0.1-0.1,0.2-0.2,0.3c-30-3.4-58.8,17.7-97.9,46.4c-27.8,20.4-59.4,43.6-98.3,61.8c-10.7,5-21,8.8-30.9,11.4
	c-5.3,7.9-9.9,15.4-13.8,22.4c-1.1,1.7-2.4,4-3.8,6.7c-1.5,2.8-2.8,5.5-3.9,8.2c-1.1,2.7-1.5,4.9-1.3,6.9c0.2,1.9,1.6,2.8,4.1,2.8
	c2.4,0,4.4,0.9,6.1,2.6c1.7,1.7,2.6,3.7,2.6,6.1c0,2.4-0.9,4.3-2.6,5.9c-1.7,1.6-3.8,2.4-6.1,2.4c-5.5,0-9.7-1.1-12.5-3.2
	c-2.8-2.1-4.7-4.4-5.7-6.7c-2.4-3.9-3.1-8.5-2.1-13.9c1-5.5,3.3-11.8,7-19.1c2.7-5.2,6-11,9.9-17.3c-2.7,0.2-5.4,0.3-8,0.3
	c-15.1,0-28.8-3.5-41.2-10.4c-47.2-26.5-55.3-93.4-55.6-96.2c-0.5-4.9,3-9.3,7.8-9.8c4.9-0.5,9.3,3,9.8,7.8
	c0.1,0.7,7.5,60.8,46.7,82.7c14.8,8.3,32.5,10.2,53.1,5.7c4-6.2,8.4-12.8,13.2-19.8c6.8-10.1,13.6-20.1,20.2-30.1
	c6.6-10.1,12.3-19.7,16.9-28.8c3.2-5.8,5.6-10.7,7.1-14.9c1.5-4.2,2.5-7.6,3-10.4c0.5-2.8,0.7-5,0.5-6.6c-0.2-1.6-0.5-2.8-1-3.6
	c-1.1-1.7-3-2.9-5.7-3.7c-2.8-0.8-5.5-1.1-8-1.1c-7.7,0-15.6,2.4-23.7,7.3c-8.1,4.9-16.3,11.5-24.5,19.9
	c-8.2,8.3-16.5,17.9-24.9,28.6c-8.4,10.8-16.9,22.1-25.5,33.8c-1.5,1.9-3.3,3-5.4,3.3c-2.1,0.3-4.2-0.1-6.1-1.4
	c-1.7-1.3-2.8-3.1-3.4-5.3c-0.5-2.2,0.1-4.3,1.8-6.2c9.4-13,18.7-25.4,27.8-37.2c9.2-11.7,18.4-21.9,27.6-30.5
	c9.2-8.7,18.4-15.5,27.7-20.7c9.3-5.1,18.8-7.7,28.7-7.7c7,0,13,1.1,17.9,3.2c4.9,2.1,8.6,5.4,10.9,9.9c3,5.7,3.6,12.7,1.7,20.8
	c-1.8,8.1-5.1,16.9-9.9,26.5s-10.7,19.9-17.7,30.8c-7.1,10.9-14.4,22-22.1,33.3c-0.5,0.8-1,1.5-1.5,2.3c2.4-1,4.8-2.1,7.3-3.2
	c37.3-17.4,68.2-40,95.3-60c43.6-32,81.1-59.5,123.2-47l0.3,0.1l2.3,0.7l0.5,0.2C852.4,30.4,857.1,32.4,861.8,35z"/>
<path class="st1" d="M872.1,56.1c0-0.2,0.1-0.5,0.3-0.9l-0.1,0.6C872.2,55.8,872.2,56,872.1,56.1z"/>
<path class="st0" d="M1363.4,31.3c-1.7-1.6-3.7-2.4-6.1-2.4c-7.5,0-15.4,1.7-23.9,5.1c-8.4,3.4-17.3,8-26.6,13.6
	c-9.3,5.6-18.9,12.1-28.8,19.4c-10,7.2-20,14.8-30.3,22.7c-10.9,8.3-22,16.6-33.3,24.8c-11.3,8.2-22.5,15.7-33.8,22.4
	c-6.4,3.9-12.8,7.3-19,10.3c4.7,3.3,9.7,7.3,13.8,11.6c3.5-1.8,7-3.8,10.5-5.9c11.7-6.9,23.6-14.9,35.5-23.7
	c12-8.8,23.9-17.7,35.8-26.7c9.4-7.1,18.8-14,28.2-20.8c9.4-6.8,18.4-13,27-18.4c8.7-5.5,16.8-9.9,24.3-13.3
	c7.6-3.4,14.4-5.1,20.4-5.1c2.3,0,4.4-0.8,6.1-2.3c1.7-1.5,2.6-3.4,2.6-5.7C1366,34.8,1365.2,32.9,1363.4,31.3z M1167.8,175.3
	c0.2,0.6,0.4,1.2,0.7,1.9c0.1,0.1,0.2,0.3,0.2,0.5C1168.5,177,1168.2,176.2,1167.8,175.3z"/>
<path class="st0" d="M1211.3,226.2c-1.7-1.7-3.7-2.5-6.1-2.5c-12.2,0-19.7-1.8-22.8-5.5c-1.7-2.1-2.2-5.2-1.6-9.2
	c0.7-4.1,1.5-8.2,2.6-12.2c1.1-5.3,1.9-10.7,2.6-16c0.6-5.3-0.2-10.4-2.6-15c-0.5-0.9-1-1.6-1.6-2.1c-1.6-2.9-3.8-5.6-6.4-8.2
	c-4.1-4.3-9-8.2-13.8-11.6c-7.4-5.1-14.4-8.8-17-10.1c-0.2-0.1-0.4-0.3-0.7-0.4c-2.6-1.1-5-2-7.4-2.8c-5-1.7-9.6-2.9-13.6-3.4
	c-1-0.1-2-0.2-3-0.3c-4.6-0.4-8.6-0.4-12.1,0.1c-4.1,0.7-7.5,1.8-10.1,3.4c-2.6,1.6-4.5,3-5.8,4.3c-3,2.8-4.9,6.1-5.8,10.1
	c-0.8,4-0.4,7.7,1.3,11.4c1.7,4.1,4.8,7.8,9.4,11.2c0.2,0.1,0.3,0.2,0.5,0.4c3.9,2.7,9,4.4,15.4,4.9c1.6,0.1,3.3,0.2,5.1,0.2
	c10.7,0,21.7-2.1,33.1-6.4c2.8-1,5.5-2.2,8.4-3.4c3.7,3.2,6.7,6.3,8.1,8.9c0.5,0.8,0.8,1.6,0.9,2.4c0.1,0,0.1,0,0.1,0.1
	c0.8,1.7,0.9,4.2,0.3,7.6c-0.6,3.7-1.3,7.4-1.9,11c-1.5,6-2.4,12.1-2.9,18.4c-0.5,6.3,1.5,12,5.8,17.1c3.2,4.3,7.6,7.3,13.2,9.2
	c5.7,2,13,2.9,22,2.9c2.3,0,4.4-0.8,6.1-2.4c1.7-1.6,2.6-3.5,2.6-5.9C1213.9,229.9,1213.1,227.9,1211.3,226.2z M1122.6,155.9
	c-1.5,0.1-3,0.2-4.5,0.2c-4.3,0-7.7-0.7-10.2-2c-0.9-0.4-1.6-0.9-2.3-1.3c-1.3-0.9-2.1-1.8-2.5-2.8c-0.2-1.5,0-2.8,0.6-3.9
	c0.8-0.9,2.1-1.5,3.9-2.1c0.9-0.3,2-0.5,3.3-0.6c1-0.1,2.2-0.2,3.4-0.2c2.8,0,6.1,0.3,9.9,1.1c1.3,0.3,2.8,0.6,4.3,1
	c2.8,0.8,5.8,1.9,9.2,3.3c0.3,0.1,0.6,0.3,0.9,0.4c0,0,0,0,0.1,0.1c1.5,0.8,3,1.6,4.5,2.4C1136.1,154.1,1129.2,155.5,1122.6,155.9z"
	/>
<g>
	<path class="st0" d="M829.9,42.4l3.2,0.8c-1.1-0.2-2.3-0.4-3.4-0.5C829.8,42.6,829.8,42.5,829.9,42.4z"/>
	<path class="st0" d="M841,45.1l2,0.5l-0.1,0.2C842.3,45.6,841.6,45.3,841,45.1z"/>
	<path class="st0" d="M931.2,115.9c-3.7,3.2-9.3,2.8-12.5-0.9l-19-21.7c-13.3-16.7-25.5-28.7-36.9-36.9c-3.4-2.4-6.6-4.5-9.9-6.2
		l9-15.2c3.4,1.8,6.7,3.9,10.2,6.3c13.1,9.1,26.8,22.3,41.3,40.5l18.7,21.5C935.3,107,934.9,112.6,931.2,115.9z"/>
</g>
<g>
	<g>
		<g>
			<g>
				<g>
					<path class="st2" d="M875,29.7c-0.8-3.3-2.8-6.2-5.8-8l-5.9-3.7c-6.1-3.7-14.1-1.8-17.9,4.3l-3.2,5.1l4.3,1.4l0.3,0.1l2.2,0.7
						l0.5,0.2l4.1,1.3l1.7-2.9c0.5-0.8,1.2-1.3,2.1-1.5c0.8-0.2,1.6,0,2.3,0.4l3.2,1.9c0.7,0.4,1.3,1.1,1.4,1.9
						c0.3,0.9,0.1,1.7-0.3,2.5l-1.4,2.3l-8.4,14.1L853,52c-0.1,0.2-0.2,0.3-0.3,0.5l0,0c-0.7,0.8-1.7,1.3-2.8,1.2l-1.4-0.4l-3.1-1.8
						c-1.5-0.9-2-2.9-1.2-4.4l0.8-1.5l0.1-0.2l-1.8-0.4l-0.2,0l-7.2-1.8l-3-0.7c0,0.1-0.1,0.2-0.1,0.3c-1.8,3.3-2.1,7.3-0.8,10.8
						L714.7,258.5l-1,1.7l5.5,3.5L851.5,65.5c3.9-0.4,7.5-2.6,9.7-6.1l2.4-3.9l8.6-14l1.2-1.9C875.3,36.6,875.8,33.1,875,29.7z"/>
				</g>
			</g>
		</g>
	</g>
</g>
<g>
	<path class="st0" d="M931.4,260c-1.2,0-2.3-0.3-3.5-0.8c-3.9-1.9-5.5-6.6-3.6-10.5c3.6-7.3,88.5-179.5,144.3-228.1
		c3.3-2.9,8.2-2.5,11.1,0.8c2.8,3.3,2.5,8.2-0.8,11.1C1025.5,79,939.3,253.9,938.4,255.6C937,258.4,934.3,260,931.4,260z"/>
</g>
<g>
	<path class="st0" d="M1061.5,260c-1.2,0-2.3-0.3-3.5-0.8c-3.9-1.9-5.5-6.6-3.6-10.5c3.6-7.3,88.5-179.5,144.3-228.1
		c3.3-2.9,8.2-2.5,11.1,0.8c2.8,3.3,2.5,8.2-0.8,11.1c-53.4,46.6-139.6,221.4-140.5,223.2C1067.2,258.4,1064.4,260,1061.5,260z"/>
</g>
</svg>
