<?xml version="1.0" encoding="utf-8"?>
<!-- Generator: Adobe Illustrator 26.1.0, SVG Export Plug-In . SVG Version: 6.00 Build 0)  -->
<svg version="1.1" id="a" xmlns="http://www.w3.org/2000/svg" xmlns:xlink="http://www.w3.org/1999/xlink" x="0px" y="0px"
	 viewBox="0 0 549.5 160" style="enable-background:new 0 0 549.5 160;" xml:space="preserve">
<style type="text/css">
	.st0{fill:#3B393F;stroke:#38373D;stroke-width:3;stroke-miterlimit:10;}
	.st1{fill:#8639FF;}
	.st2{fill:#3B6EFF;}
</style>
<path class="st0" d="M359.9,48.3v72.3h-9V48.3h-27.8V40h64.7v8.2H359.9z"/>
<path class="st0" d="M408.7,120.6h-9V40h9V120.6z"/>
<path class="st0" d="M473.4,99.3v21.3h-9.2V99.3c0-6.9-5.7-12.6-12.6-12.6h-20.6v33.9H422V40h8.9v32.8l35.6-33.4l7,6l-34.4,32h12.5
	C463.6,77.5,473.4,87.3,473.4,99.3L473.4,99.3z"/>
<path class="st0" d="M313,77V40.2h-36.8c-20.3,0-36.8,16.5-36.8,36.8v43.6h9.2V91.4c7.7-2.9,30.8-10.6,55.2-6.9v36h9.2v-34
	c4.9,1.4,9.9,3.3,14.7,5.9l4.4-8.1C325.8,80.9,319.4,78.6,313,77L313,77z M303.9,75.2c-23.3-3.2-44.8,2.7-55.2,6.4V77
	c0-15.2,12.4-27.6,27.6-27.6h27.6V75.2z"/>
<path class="st1" d="M89.8,39.6c-0.3,0.4-0.5,0.8-0.8,1.2v-1.2H89.8z"/>
<g>
	<path class="st0" d="M226.4,44.2v77h-9.2V60c-8.7,9.5-18,14.3-27.6,14.3c-0.3,0-0.7,0-1,0c-11.3-0.4-20.5-7.5-26.7-14v60.9h-9.2
		v-77h9.2v1.2c2.6,4.1,13.3,19.3,27.1,19.7c9.5,0.3,18.9-6.4,28.2-19.9c0.2-0.3,0.5-0.6,0.7-1L226.4,44.2L226.4,44.2z"/>
	<path class="st0" d="M218.2,44.2h-0.3c0,0,0.1-0.1,0.1-0.1L218.2,44.2z"/>
</g>
<polygon class="st2" points="56.7,12.6 75,42.2 106.3,57.1 76.8,75.4 61.8,106.7 43.5,77.2 12.2,62.2 41.7,44 "/>
<polygon class="st2" points="83.7,106.7 93.8,120.7 110,127.1 95.9,137.3 89.5,153.4 79.4,139.3 63.2,132.9 77.3,122.8 "/>
</svg>
