<?xml version="1.0" encoding="UTF-8"?><svg id="a" xmlns="http://www.w3.org/2000/svg" xmlns:xlink="http://www.w3.org/1999/xlink" viewBox="0 0 800 400"><defs><style>.m{fill:url(#l);}.n{fill:url(#c);}.o{fill:url(#f);}.p{fill:url(#g);}.q{fill:url(#b);}.r{fill:url(#i);}.s{fill:url(#h);}.t{fill:url(#d);}.u{fill:url(#e);}.v{fill:url(#j);}.w{fill:url(#k);}</style><linearGradient id="b" x1="924.35" y1="-43.7" x2="-228.27" y2="318.07" gradientTransform="matrix(1, 0, 0, 1, 0, 0)" gradientUnits="userSpaceOnUse"><stop offset="0" stop-color="#954bff"/><stop offset="1" stop-color="#4ebdff"/></linearGradient><linearGradient id="c" x1="926.51" y1="-31.05" x2="-224.32" y2="330.16" xlink:href="#b"/><linearGradient id="d" x1="913.7" y1="-72.54" x2="-238.92" y2="289.23" xlink:href="#b"/><linearGradient id="e" x1="919.33" y1="-51.12" x2="-233.28" y2="310.65" xlink:href="#b"/><linearGradient id="f" x1="914.08" y1="-112.23" x2="-266.17" y2="258.21" xlink:href="#b"/><linearGradient id="g" x1="949.36" y1=".14" x2="-230.9" y2="370.59" xlink:href="#b"/><linearGradient id="h" x1="927.99" y1="-67.92" x2="-252.26" y2="302.53" xlink:href="#b"/><linearGradient id="i" x1="948.74" y1="-1.83" x2="-231.52" y2="368.61" xlink:href="#b"/><linearGradient id="j" x1="985.18" y1="114.28" x2="-195.08" y2="484.72" xlink:href="#b"/><linearGradient id="k" x1="972.09" y1="72.57" x2="-208.17" y2="443.02" xlink:href="#b"/><linearGradient id="l" x1="984.38" y1="111.74" x2="-195.87" y2="482.18" xlink:href="#b"/></defs><rect x="490.37" y="32.23" width="14.07" height="116.16" rx="4.29" ry="4.29" style="fill:url(#b);"/><rect x="454.72" y="61.52" width="14.07" height="106.6" rx="4.29" ry="4.29" style="fill:url(#c);"/><rect x="419.07" y="22.42" width="14.07" height="116.16" rx="4.29" ry="4.29" style="fill:url(#d);"/><rect x="383.42" y="56.8" width="14.07" height="116.16" rx="4.29" ry="4.29" style="fill:url(#e);"/><polygon points="461.41 19.28 482.47 7.75 471.39 29.26 480.5 49.23 461.76 38.61 441.04 49.18 452.25 28.44 443.84 9.99 461.41 19.28" style="fill:url(#f);"/><polygon points="418.44 164.79 409.46 148.39 426.22 157.02 441.78 149.92 433.5 164.52 441.74 180.68 425.58 171.94 411.21 178.49 418.44 164.79" style="fill:url(#g);"/><g><path d="M176.51,105.83v178.11h-33.48v-110.83c0-4.85-6.83-5.87-8.26-1.24l-27.79,90.3h-32.56l-27.8-88.35c-1.45-4.61-8.25-3.56-8.25,1.27v108.85H4.85V105.83H53.45l33.17,99.98c1.16,4.1,6.97,4.1,8.13,0l33.21-99.98h48.56Z" style="fill:url(#h);"/><path d="M296.25,105.83h-23.38l-74.81,178.12h39.68l8.32-23.76c1.59-4.54,5.88-7.58,10.69-7.58h55.6c4.81,0,9.1,3.04,10.69,7.58l8.32,23.76h39.68l-74.81-178.12Zm-32.17,102.94l14.55-41.52c1.96-5.59,9.87-5.59,11.83,0l14.55,41.52c1.43,4.07-1.6,8.34-5.91,8.34h-29.1c-4.32,0-7.34-4.26-5.91-8.34Z" style="fill:url(#i);"/><path d="M513.96,197.69v18.91l-9.86,.5h0c0,4.86-3.49,9.02-13.74,9.87l-38.76,6.23,9.1,141.66c0,10.19-8.26,18.44-18.44,18.44h0c-10.19,0-18.44-8.26-18.44-18.44l9.21-142.61-45.05-5.51c-4.76-.86-8.23-5-8.25-9.84v-.82l-9.18-.22v-18.17h143.42Z" style="fill:url(#j);"/><path d="M601.47,105.83v178.12h-38.21V105.83h38.21Z" style="fill:url(#k);"/><path d="M797.08,283.95h-43.74l-41.52-72.47c-2.38-4.16-8.27-4.46-11.06-.57l-20.83,28.96c-.81,1.12-1.24,2.47-1.24,3.85v40.24h-36.85V105.83h36.85v57.44c0,6.54,8.5,9.08,12.09,3.62l51.7-61.06h46.42l-57.49,76.07,65.68,102.05Z" style="fill:url(#l);"/></g></svg>