<?xml version="1.0" encoding="utf-8"?>
<!-- Generator: Adobe Illustrator 26.1.0, SVG Export Plug-In . SVG Version: 6.00 Build 0)  -->
<svg version="1.1" id="Layer_1" xmlns="http://www.w3.org/2000/svg" xmlns:xlink="http://www.w3.org/1999/xlink" x="0px" y="0px"
	 viewBox="0 0 800 400" style="enable-background:new 0 0 800 400;" xml:space="preserve">
<style type="text/css">
	.st0{fill:#262659;}
	.st1{fill:#6A65FF;}
	.st2{fill:#A0A0F9;}
</style>
<g>
	<path class="st0" d="M389.2,217.6c6.7,7,10,17.1,10,30.3v62.3h-23.5v-61.5c0-7.1-1.9-12.5-5.6-16.1c-3.7-3.6-8.6-5.4-14.7-5.4
		c-6.7,0-12,1.9-15.9,5.7c-4,3.8-5.9,9.6-5.9,17.3v60.1h-23.5v-61.5c0-7.1-1.7-12.5-5.2-16.1c-3.5-3.6-8.2-5.4-14.2-5.4
		c-6.6,0-11.8,1.9-15.8,5.7c-4,3.8-5.9,9.6-5.9,17.3v60.1h-23.5V208.9h22.7v12.5c3.1-4.5,7.2-8,12.3-10.5c5.1-2.5,11-3.7,17.7-3.7
		c7,0,13,1.3,18.2,3.8c5.2,2.6,9.2,6.3,12,11.1c3.5-4.8,8-8.5,13.7-11.1c5.6-2.6,12-3.8,19-3.8C373.3,207.1,382.6,210.6,389.2,217.6
		z"/>
	<path class="st0" d="M492.5,212.6c7,3.7,12.4,9.1,16.2,16.2c3.9,7.1,5.8,15.8,5.8,25.9v55.5H491v-24.3h-46.3v24.3h-23.2v-55.5
		c0-10.1,1.9-18.8,5.8-25.9c3.9-7.1,9.3-12.5,16.2-16.2c7-3.7,15.1-5.5,24.5-5.5C477.4,207.1,485.5,208.9,492.5,212.6z M491,267.1
		v-14.5c0-8.4-2.1-14.7-6.2-19c-4.2-4.3-9.8-6.4-16.9-6.4c-7.2,0-12.9,2.1-17,6.4c-4.1,4.3-6.2,10.6-6.2,19v14.5H491z"/>
	<path class="st0" d="M610.1,237.2c-8.7-5-18-8.3-27.9-9.7v82.7h-23.5v-82.7c-9.9,1.4-19.3,4.7-28.1,9.7l-8-17.5
		c7-4.2,14.5-7.3,22.6-9.4c8.1-2.1,16.5-3.2,25.1-3.2c8.7,0,17.1,1.1,25.3,3.2c8.2,2.1,15.7,5.3,22.5,9.4L610.1,237.2z"/>
	<path class="st0" d="M663.4,227.7v63.7h17.5v18.8h-58.6v-18.8h17.7v-63.7h-17.7v-18.8h58.6v18.8H663.4z"/>
	<path class="st0" d="M735.5,270.4l-13.6,14.2v25.6h-23.3V208.9h23.3v47.4l44.9-47.4h26.1l-42,45.2l44.5,56.2h-27.4L735.5,270.4z"/>
</g>
<g>
	<path class="st1" d="M107.2,227.3c-3.2,4-6.3,8.1-9.1,12.2c8.8,12.6,15.3,25.2,15.3,34.7c0,14-5.9,26.7-15.3,35.7
		c3.5,3.4,7.6,6.3,12,8.5c11.1-11.5,17.8-27.1,17.8-44.2C127.8,260.1,118.5,242.9,107.2,227.3z M63.9,323.7
		c-27.2,0-49.4-22.2-49.4-49.5c0-20.9,32.1-57.4,49.4-74.9c7,7,16.3,17.1,25,28c3-4.1,6.1-8.1,9.1-11.9
		c-13.2-16.2-26.3-28.8-29.2-31.5l-5-4.7l-5,4.7c-6,5.7-58.9,56.8-58.9,90.3c0,35.3,28.7,63.9,63.9,63.9c12.6,0,24.3-3.6,34.2-9.9
		c-4.4-2.8-8.4-6.1-12-9.8C79.4,321.7,71.9,323.7,63.9,323.7z"/>
</g>
<g>
	<path class="st1" d="M137.2,183.9l-5-4.7l-5,4.7c-2.8,2.7-16,15.4-29.2,31.5c3.1,3.8,6.2,7.8,9.1,11.9c8.7-10.9,18-21,25-28
		c17.4,17.4,49.5,54,49.5,74.9c0,27.3-22.2,49.5-49.5,49.5c-8,0-15.5-1.9-22.2-5.3c-3.5,3.7-7.6,7-12,9.8c9.9,6.3,21.6,9.9,34.1,9.9
		c35.3,0,63.9-28.7,63.9-63.9C196.1,240.7,143.2,189.7,137.2,183.9z M82.8,274.2c0-9.4,6.5-22,15.3-34.7c-2.8-4.1-6-8.2-9.1-12.2
		c-11.3,15.6-20.6,32.8-20.6,46.9c0,17.1,6.8,32.7,17.8,44.2c4.4-2.2,8.4-5.1,12-8.5C88.6,300.9,82.8,288.2,82.8,274.2z"/>
	<path class="st2" d="M110,318.4c-3.5,3.7-7.6,7-12,9.8c-4.4-2.8-8.4-6.1-12-9.8c4.4-2.2,8.4-5.1,12-8.5
		C101.6,313.3,105.6,316.2,110,318.4z"/>
	<path class="st2" d="M107.2,227.3c-3.2,4-6.3,8.1-9.1,12.2c-2.8-4.1-6-8.2-9.1-12.2c3-4.1,6.1-8.1,9.1-11.9
		C101.2,219.2,104.2,223.2,107.2,227.3z"/>
</g>
</svg>
