<?xml version="1.0" encoding="utf-8"?>
<!-- Generator: Adobe Illustrator 26.1.0, SVG Export Plug-In . SVG Version: 6.00 Build 0)  -->
<svg version="1.1" id="Layer_1" xmlns="http://www.w3.org/2000/svg" xmlns:xlink="http://www.w3.org/1999/xlink" x="0px" y="0px"
	 viewBox="0 0 800 400" style="enable-background:new 0 0 800 400;" xml:space="preserve">
<style type="text/css">
	.st0{fill:#6A65FF;}
	.st1{fill:#ED1C24;}
	.st2{fill:#2C2830;}
</style>
<path class="st0" d="M195.7,133.7c-2.9-3.2-7-4.8-12.3-4.8c-6.2,0-12.6,2.2-19.2,6.5c-6.5,4.4-13,9.9-19.5,16.6
	c-6.4,6.7-12.7,14.2-19,22.4c-6.2,8.2-12.2,16.2-17.8,23.9c-1.6,2.1-3.1,4.1-4.4,5.9c-1.4,1.8-2.6,3.6-3.8,5.3
	c-25.5,34.1-47.5,51.2-66,51.2c-3.8,0-7-0.5-9.6-1.4c-2.5-0.9-4.6-2.1-6.2-3.7c-1.6-1.5-2.8-3.2-3.5-5.1c-0.7-1.9-1.1-3.8-1.1-5.6
	c0-2.4,0.5-4.9,1.6-7.2c1.1-2.4,2.7-4.5,4.6-6.3c1.7-1.7,4-3.3,6.8-4.7c2.8-1.4,6.5-2.1,11.2-2.1c1.1,0,2.7,0.1,4.8,0.4
	c2.1,0.3,4.2,0.8,6.3,1.8c2.1,0.9,4.1,2.2,6,4c1.8,1.8,3.1,4.3,3.8,7.4c0.4,1.2,1,2.2,2,2.8c1,0.7,2.1,0.9,3.5,0.6
	c1.4-0.2,2.4-0.9,3.1-2.1c0.7-1.2,1-2.4,0.7-3.6c-1.6-6.3-5.1-11.5-10.4-15.3c-5.4-3.8-12-5.8-19.8-5.8c-4.6,0-9.1,0.8-13.5,2.5
	c-4.4,1.7-8.1,4.1-11.1,7.3c-2.8,2.8-5,6-6.6,9.6c-1.6,3.6-2.4,7.2-2.4,10.7c0,3.2,0.6,6.3,1.8,9.3c1.1,3,3,5.7,5.4,8.1
	c2.4,2.4,5.5,4.3,9.3,5.7c3.7,1.4,8.2,2.1,13.3,2.1c11.1,0,22.7-4.5,34.7-13.5c12-9,24.9-22.8,38.7-41.4c1.4-1.7,2.7-3.5,4.1-5.4
	c1.4-1.9,2.8-3.9,4.3-6c5-7,10.4-14.3,16.2-22c5.8-7.7,11.7-14.8,17.6-21.3c5.9-6.5,11.8-11.8,17.6-16.1c5.8-4.2,11.3-6.3,16.4-6.3
	c0.9,0,1.8,0.2,2.8,0.5s1.8,0.8,2.4,1.4c0.5,0.6,0.8,1.5,0.8,2.7c0.1,1.2,0,2.7-0.3,4.7c-0.1,1.2,0.2,2.3,0.8,3.4
	c0.7,1,1.7,1.6,3,1.7c1.4,0.4,2.5,0.2,3.6-0.6c1-0.8,1.7-1.9,1.9-3.2C199.6,142.5,198.7,137.5,195.7,133.7z"/>
<path class="st0" d="M291.7,215.2c-14.2,18.7-27.2,32.5-39.1,41.5c-11.9,8.9-23.3,13.4-34.3,13.4c-5.1,0-9.6-0.7-13.3-2.1
	c-3.7-1.4-6.8-3.3-9.3-5.7c-2.4-2.4-4.3-5.1-5.4-8.1c-1.2-3-1.8-6.1-1.8-9.3c0-1.3,0.1-2.7,0.3-4c0-0.9,0.1-1.9,0.4-3
	c0.7-3.4,2.2-7.4,4.5-11.9c2.3-4.5,5.2-9.6,9-15.3c3.7-5.7,7.9-12,12.6-19c3.9-5.8,7.7-11.5,11.4-17.1c3.7-5.7,6.9-11,9.6-15.9
	c1.8-3.4,3.2-6.3,4-8.6c0.9-2.3,1.4-4.2,1.7-5.6c0.2-1.4,0.3-2.4,0.3-3.1c-0.1-0.7-0.2-1.1-0.3-1.4c-0.5-0.6-1.4-1.1-2.6-1.4
	c-1.2-0.3-2.1-0.5-2.8-0.5c-4,0-9.6,2.9-16.6,8.6c-7,5.8-15.1,13.9-24.3,24.4c-9.2,10.5-19.2,23.1-30,37.9
	c-10.8,14.8-22,31-33.5,48.9c-1,1.5-2.4,2.2-4.2,2.2c-0.6,0-1.4-0.3-2.4-0.9c-1.2-0.6-1.9-1.6-2.1-2.8c-0.2-1.2,0-2.4,0.6-3.5
	c2.2-3.3,5.2-7.8,8.9-13.4c3.7-5.6,8-11.8,12.7-18.6c4.8-6.8,9.9-13.9,15.5-21.5c5.6-7.5,11.3-14.9,17.2-22.1
	c13.2-16.5,24.6-28.7,34.1-36.6c9.5-7.9,17.6-11.8,24-11.8c6.9,0,11.3,2.1,13.4,6.4c1.6,2.8,2,6.1,1.3,10c-0.7,3.8-2.3,8.3-4.8,13.4
	c-2.4,5.1-5.7,10.8-9.7,17.1c-4,6.3-8.6,13.4-13.8,21.1c-3.8,5.5-7.3,10.8-10.6,16c-0.8,1.3-1.7,2.6-2.4,3.8
	c-2.3,3.7-4.4,7.2-6.2,10.5c-1.7,3.1-2.9,5.5-3.7,7.4c-0.7,1.9-1.2,3.4-1.5,4.5c-0.3,0.9-0.4,1.6-0.3,2.1c-0.3,1.2-0.4,2.4-0.4,3.6
	c0,1.8,0.4,3.7,1.1,5.6c0.2,0.6,0.5,1.1,0.8,1.7c0.7,1.2,1.6,2.4,2.7,3.4c1.6,1.5,3.7,2.8,6.3,3.7c2.6,0.9,5.8,1.4,9.5,1.4
	c9.2,0,19.2-4.2,30-12.7c10.8-8.4,22.8-21.3,36.1-38.5c0.7-1,1.8-1.6,3.1-1.8c1.4-0.2,2.5,0.1,3.5,0.9c1.1,0.9,1.7,1.9,1.8,3.1
	C293,212.9,292.6,214.1,291.7,215.2z"/>
<path class="st0" d="M493.6,142.7l-5.2,8.7c-1.9-1-3.8-1.9-5.7-2.5l0.1-0.1l-1.1-0.3l-0.1,0c-1.5-0.5-3-0.8-4.4-1.1l-1.9-0.5
	c0,0.1-0.1,0.1-0.1,0.2c-17.2-2-33.7,10.2-56.1,26.6c-15.9,11.7-34,25-56.3,35.4c-6.2,2.9-12.1,5-17.7,6.5c-3,4.5-5.6,8.8-7.9,12.8
	c-0.6,1-1.3,2.3-2.2,3.9c-0.9,1.6-1.6,3.2-2.2,4.7c-0.6,1.5-0.8,2.8-0.7,3.9c0.1,1.1,0.9,1.6,2.4,1.6c1.4,0,2.5,0.5,3.5,1.5
	c1,1,1.5,2.1,1.5,3.5c0,1.3-0.5,2.5-1.5,3.4c-1,0.9-2.1,1.4-3.5,1.4c-3.2,0-5.5-0.6-7.2-1.8c-1.6-1.2-2.7-2.5-3.3-3.9
	c-1.4-2.2-1.8-4.9-1.2-8c0.6-3.1,1.9-6.8,4-10.9c1.6-3,3.4-6.3,5.7-9.9c-1.5,0.1-3.1,0.2-4.6,0.2c-8.6,0-16.5-2-23.6-6
	c-27-15.2-31.7-53.5-31.9-55.1c-0.3-2.8,1.7-5.3,4.5-5.6c2.8-0.3,5.3,1.7,5.6,4.5c0.1,0.4,4.3,34.8,26.7,47.4
	c8.5,4.7,18.6,5.8,30.4,3.3c2.3-3.5,4.8-7.3,7.6-11.3c3.9-5.8,7.8-11.5,11.6-17.2c3.8-5.8,7-11.3,9.7-16.5c1.8-3.3,3.2-6.1,4.1-8.5
	c0.8-2.4,1.4-4.4,1.7-6c0.3-1.6,0.4-2.8,0.3-3.8c-0.1-0.9-0.3-1.6-0.6-2.1c-0.6-1-1.7-1.7-3.3-2.1c-1.6-0.4-3.1-0.6-4.6-0.6
	c-4.4,0-8.9,1.4-13.6,4.2c-4.6,2.8-9.3,6.6-14,11.4c-4.7,4.8-9.5,10.2-14.3,16.4c-4.8,6.2-9.7,12.6-14.6,19.4
	c-0.9,1.1-1.9,1.7-3.1,1.9c-1.2,0.2-2.4-0.1-3.5-0.8c-1-0.7-1.6-1.8-1.9-3c-0.3-1.3,0-2.5,1-3.6c5.4-7.5,10.7-14.6,16-21.3
	c5.3-6.7,10.5-12.6,15.8-17.5c5.2-5,10.5-8.9,15.8-11.8c5.3-2.9,10.8-4.4,16.4-4.4c4,0,7.5,0.6,10.3,1.8c2.8,1.2,4.9,3.1,6.2,5.7
	c1.7,3.3,2,7.3,1,11.9c-1,4.6-2.9,9.7-5.7,15.2s-6.1,11.4-10.2,17.6c-4,6.2-8.3,12.6-12.7,19.1c-0.3,0.4-0.6,0.9-0.9,1.3
	c1.4-0.6,2.8-1.2,4.2-1.8c21.4-10,39-22.9,54.6-34.4c25-18.3,46.5-34.1,70.6-26.9l0.2,0.1l1.3,0.4l0.3,0.1
	C488.2,140,490.9,141.2,493.6,142.7z"/>
<path class="st1" d="M499.5,154.7c0-0.1,0.1-0.3,0.2-0.5l-0.1,0.3C499.6,154.6,499.6,154.7,499.5,154.7z"/>
<path class="st0" d="M507.2,270.8c-1.2,0-2.3-0.5-3.3-1.4c-1-0.9-1.5-2.1-1.5-3.4c0-1.1,0.5-2.1,1.5-3c1-0.9,2.1-1.4,3.3-1.4
	c7.1,0,13.8-2.2,20-6.6c6.2-4.4,12.3-10.4,18.1-18c5.8-7.6,11.6-16.5,17.4-26.9c5.8-10.3,11.8-21.4,18.1-33.1
	c2.8-5.4,5.7-10.8,8.5-16.2c2.9-5.4,5.9-11,9.1-16.6c0.6-1.2,1.6-2,2.8-2.3c1.3-0.3,2.5-0.1,3.8,0.6c1.1,0.6,1.8,1.5,2,2.8
	c0.2,1.2,0.1,2.4-0.5,3.5c-2.9,5.8-5.9,11.3-8.8,16.6c-2.9,5.3-5.8,10.7-8.6,16.1c-6.6,12.5-13,24.2-19.2,35
	c-6.2,10.9-12.5,20.3-18.9,28.3c-6.4,8-13.2,14.3-20.3,19C523.6,268.4,515.8,270.8,507.2,270.8z"/>
<path class="st0" d="M797,140.5c-1-0.9-2.1-1.4-3.5-1.4c-4.3,0-8.8,1-13.7,2.9c-4.8,2-9.9,4.6-15.2,7.8c-5.3,3.2-10.8,7-16.5,11.1
	c-5.7,4.1-11.5,8.5-17.3,13c-6.2,4.8-12.6,9.5-19.1,14.2c-6.5,4.7-12.9,9-19.3,12.8c-3.7,2.2-7.3,4.2-10.9,5.9
	c2.7,1.9,5.6,4.2,7.9,6.6c2-1.1,4-2.2,6-3.4c6.7-4,13.5-8.5,20.4-13.6c6.9-5.1,13.7-10.2,20.5-15.3c5.4-4,10.8-8,16.2-11.9
	c5.4-3.9,10.6-7.4,15.5-10.5c5-3.1,9.6-5.7,13.9-7.6c4.4-2,8.2-2.9,11.7-2.9c1.3,0,2.5-0.4,3.5-1.3c1-0.8,1.5-1.9,1.5-3.3
	C798.5,142.5,798,141.5,797,140.5z M684.9,223.1c0.1,0.3,0.2,0.7,0.4,1.1c0,0.1,0.1,0.2,0.1,0.3C685.4,224,685.2,223.5,684.9,223.1z
	"/>
<path class="st0" d="M709.9,254.2c-1-1-2.1-1.5-3.5-1.5c-7,0-11.3-1-13-3.1c-1-1.2-1.3-3-0.9-5.3c0.4-2.4,0.9-4.7,1.5-7
	c0.6-3.1,1.1-6.1,1.5-9.2c0.4-3.1-0.1-5.9-1.5-8.6c-0.3-0.5-0.6-0.9-0.9-1.2c-0.9-1.6-2.2-3.2-3.7-4.7c-2.3-2.5-5.2-4.7-7.9-6.6
	c-4.3-2.9-8.3-5-9.7-5.8c-0.1-0.1-0.2-0.2-0.4-0.2c-1.5-0.6-2.9-1.2-4.2-1.6c-2.9-1-5.5-1.7-7.8-2c-0.6-0.1-1.2-0.1-1.7-0.2
	c-2.6-0.2-5-0.2-6.9,0.1c-2.4,0.4-4.3,1-5.8,1.9c-1.5,0.9-2.6,1.7-3.3,2.5c-1.7,1.6-2.8,3.5-3.3,5.8c-0.5,2.3-0.2,4.4,0.7,6.5
	c1,2.4,2.8,4.5,5.4,6.4c0.1,0.1,0.2,0.1,0.3,0.2c2.2,1.6,5.2,2.5,8.8,2.8c0.9,0.1,1.9,0.1,2.9,0.1c6.1,0,12.5-1.2,19-3.7
	c1.6-0.6,3.2-1.2,4.8-1.9c2.1,1.8,3.8,3.6,4.6,5.1c0.3,0.5,0.5,0.9,0.5,1.3c0,0,0,0,0,0c0.5,1,0.5,2.4,0.2,4.3
	c-0.4,2.1-0.7,4.2-1.1,6.3c-0.9,3.4-1.4,7-1.7,10.6c-0.3,3.6,0.9,6.9,3.3,9.8c1.8,2.5,4.4,4.2,7.6,5.3c3.3,1.1,7.4,1.7,12.6,1.7
	c1.3,0,2.5-0.5,3.5-1.4c1-0.9,1.5-2,1.5-3.4C711.4,256.3,710.9,255.2,709.9,254.2z M659.1,213.9c-0.9,0.1-1.7,0.1-2.6,0.1
	c-2.4,0-4.4-0.4-5.9-1.1c-0.5-0.2-0.9-0.5-1.3-0.8c-0.7-0.5-1.2-1-1.5-1.6c-0.1-0.9,0-1.6,0.4-2.2c0.5-0.5,1.2-0.9,2.2-1.2
	c0.5-0.2,1.2-0.3,1.9-0.3c0.6-0.1,1.2-0.1,2-0.1c1.6,0,3.5,0.2,5.7,0.6c0.8,0.2,1.6,0.4,2.4,0.6c1.6,0.5,3.4,1.1,5.3,1.9
	c0.2,0.1,0.3,0.2,0.5,0.2c0,0,0,0,0,0c0.9,0.4,1.7,0.9,2.6,1.4C666.8,212.9,662.8,213.7,659.1,213.9z"/>
<g>
	<path class="st0" d="M475.3,146.9l1.9,0.5c-0.7-0.1-1.3-0.2-2-0.3C475.3,147,475.3,147,475.3,146.9z"/>
	<path class="st0" d="M481.7,148.5l1.1,0.3l-0.1,0.1C482.4,148.7,482.1,148.6,481.7,148.5z"/>
	<path class="st0" d="M533.4,189c-2.1,1.8-5.3,1.6-7.2-0.5L515.3,176c-7.6-9.5-14.6-16.5-21.2-21.1c-1.9-1.4-3.8-2.5-5.7-3.5
		l5.2-8.7c1.9,1,3.9,2.3,5.8,3.6c7.5,5.2,15.3,12.8,23.7,23.2l10.7,12.3C535.7,183.9,535.5,187.1,533.4,189z"/>
</g>
<g>
	<g>
		<g>
			<g>
				<g>
					<path class="st2" d="M501.2,139.1c-0.5-2.1-1.7-3.8-3.5-4.9l-3.6-2.3c-3.8-2.3-8.7-1.1-11,2.6l-2,3.1l2.7,0.9l0.2,0.1l1.3,0.4
						l0.3,0.1l2.5,0.8l1.1-1.8c0.3-0.5,0.7-0.8,1.3-0.9c0.5-0.1,1,0,1.4,0.2l2,1.1c0.5,0.3,0.8,0.7,0.9,1.2c0.2,0.5,0.1,1.1-0.2,1.5
						l-0.9,1.4l-5.2,8.7l-0.8,1.4c-0.1,0.1-0.1,0.2-0.2,0.3l0,0c-0.4,0.5-1,0.8-1.7,0.7l-0.9-0.2l-1.9-1.1c-0.9-0.6-1.2-1.8-0.7-2.7
						l0.5-0.9l0.1-0.1l-1.1-0.3l-0.1,0l-4.4-1.1l-1.9-0.5c0,0.1-0.1,0.1-0.1,0.2c-1.1,2-1.3,4.5-0.5,6.7l-72.2,126.1l-0.6,1.1
						l3.4,2.1l81.3-121.9c2.4-0.2,4.6-1.6,6-3.8l1.5-2.4l5.3-8.6l0.7-1.2C501.3,143.3,501.7,141.2,501.2,139.1z"/>
				</g>
			</g>
		</g>
	</g>
</g>
<path class="st0" d="M694.3,146.2c-0.2-1.2-0.9-2.1-2-2.8c-1.2-0.7-2.5-1-3.8-0.6c-1.3,0.3-2.2,1.1-2.9,2.3
	c-3.2,5.6-6.2,11.2-9.1,16.6c-2.9,5.4-5.7,10.8-8.5,16.2c-3.5,6.7-7,13.1-10.4,19.3c0.6,0,1.1,0.1,1.7,0.2c2.3,0.3,4.9,1,7.8,2
	c3-5.5,6.1-11.2,9.2-17c2.8-5.4,5.7-10.7,8.6-16.1c2.9-5.3,5.9-10.8,8.8-16.6C694.3,148.6,694.5,147.4,694.3,146.2z M654.3,206.7
	c-0.7,0-1.4,0-2,0.1c-0.8,1.4-1.6,2.9-2.4,4.2c-0.2,0.4-0.4,0.7-0.6,1.1c0.4,0.3,0.8,0.5,1.3,0.8c1.5,0.7,3.4,1.1,5.9,1.1
	c0.8,0,1.7,0,2.6-0.1c1.1-2,2.2-4,3.4-6c-0.9-0.2-1.7-0.5-2.4-0.6C657.8,206.9,655.9,206.7,654.3,206.7z M644.5,220.4
	c-4,6.5-7.9,12.3-11.9,17.5c-5.8,7.6-11.8,13.6-18.1,18c-6.2,4.4-12.9,6.6-20,6.6c-1.2,0-2.3,0.5-3.3,1.4c-1,0.9-1.5,1.9-1.5,3
	c0,1.3,0.5,2.5,1.5,3.4s2.1,1.4,3.3,1.4c8.6,0,16.4-2.3,23.5-7c7.1-4.7,13.9-11,20.3-19c5.2-6.5,10.3-13.9,15.3-22.3
	c-3.6-0.3-6.6-1.2-8.8-2.8C644.7,220.6,644.6,220.5,644.5,220.4z"/>
</svg>
