<?xml version="1.0" encoding="utf-8"?>
<!-- Generator: Adobe Illustrator 26.1.0, SVG Export Plug-In . SVG Version: 6.00 Build 0)  -->
<svg version="1.1" id="Layer_1" xmlns="http://www.w3.org/2000/svg" xmlns:xlink="http://www.w3.org/1999/xlink" x="0px" y="0px"
	 viewBox="0 0 1817 672" style="enable-background:new 0 0 1817 672;" xml:space="preserve">
<style type="text/css">
	.st0{fill:#6A65FF;}
</style>
<path class="st0" d="M251.27,520.52c0.18,0.7,0.43,1.32,0.59,2.04c1.18,3.92,3.33,6.97,6.48,9.13c3.14,2.15,6.87,2.85,11.2,2.06
	c4.32-0.79,7.66-3.04,10.02-6.78c2.35-3.74,3.14-7.57,2.35-11.49c-0.79-3.15-1.77-6.17-2.85-9.13
	C272.89,515.04,262.04,518.67,251.27,520.52z"/>
<path class="st0" d="M701.45,235.05c-0.82,4.26-2.86,7.69-6.22,10.31c-3.27,2.54-7.12,3.19-11.46,2.05
	c-4.34-0.41-7.53-2.29-9.74-5.65c-2.13-3.27-3.03-6.96-2.62-10.88c0.74-6.3,1.06-11.29,0.9-14.98c-0.25-3.76-1.15-6.63-2.7-8.59
	c-1.96-1.96-4.5-3.44-7.61-4.42c-3.19-0.98-6.14-1.47-8.84-1.47c-16.53,0-34.13,6.79-52.79,20.38
	c-18.66,13.5-37.48,30.69-56.55,51.56c-19.07,20.79-37.89,43.54-56.55,68.34c-18.66,24.71-36.09,48.28-52.13,70.71
	c-4.75,6.63-9.33,13.01-13.91,19.15c-4.5,6.06-8.92,11.87-13.26,17.35c-5.81,7.77-38.93,50.26-44.66,57.46h-38.3
	c10.48-12.6,48.51-61.15,59.39-75.71c3.93-5.48,8.1-11.21,12.44-17.1c4.26-5.89,9-12.19,14.08-18.82
	c18.09-24.8,37.15-50.33,57.21-76.6c20.05-26.35,40.35-50.33,60.97-71.94c20.62-21.61,41.41-39.36,62.44-53.28
	c21.03-13.99,41.57-20.95,61.62-20.95c16.86,0,30.03,5.16,39.45,15.3C702.02,199.45,704.97,215.41,701.45,235.05z"/>
<path class="st0" d="M859.63,459.47c-4.33,0-8.54-0.39-12.67-1.17c-4.12-0.79-8.16-2.76-12.08-5.9c-3.15-1.96-6.48-5.49-10.02-10.61
	c-3.54-5.1-5.11-12.17-4.72-21.21c0.78-11.39,5.39-24.46,13.85-39.18c8.44-14.73,19.24-29.26,32.41-43.6
	c13.16-14.33,27.79-27.99,43.9-40.95c16.1-12.96,32.2-23.37,48.32-31.22c22-9.81,42.43-14.63,61.28-14.44
	c18.85,0.21,35.74,5.6,50.67,16.21c3.54,2.36,5.6,5.59,6.19,9.72c0.59,4.12-0.3,7.96-2.65,11.49c-2.75,3.15-6.1,5.11-10.02,5.89
	c-3.93,0.79-7.66-0.19-11.2-2.94c-6.68-4.32-13.46-7.17-20.33-8.54c-6.88-1.37-13.85-1.77-20.92-1.18
	c-7.07,0.59-13.95,2.06-20.62,4.42c-6.68,2.36-12.96,4.92-18.85,7.66c-15.72,7.46-30.85,17.09-45.37,28.87
	c-14.54,11.79-27.31,23.86-38.3,36.24c-11,12.38-19.84,24.37-26.52,35.95c-6.68,11.59-10.22,20.92-10.61,27.99
	c0,2.36,0.2,3.74,0.59,4.12c5.49,3.53,13.15,2.95,22.98-1.77c9.81-4.72,19.05-11.2,27.69-19.44c3.14-3.14,6.67-4.61,10.61-4.42
	c3.92,0.2,7.46,2.06,10.61,5.59c3.14,3.15,4.72,6.69,4.72,10.61c0,3.93-1.57,7.47-4.72,10.61c-8.64,7.86-18.66,15.02-30.05,21.51
	C882.4,456.23,871.02,459.47,859.63,459.47z M961.57,455.34c-8.65,0-14.83-1.86-18.56-5.59c-3.74-3.73-5.99-6.58-6.78-8.54
	c-1.57-3.14-2.36-6.87-2.36-11.2s1.47-9.92,4.42-16.8c2.95-6.87,7.66-15.11,14.14-24.74c6.48-9.62,15.62-21.31,27.4-35.06
	c5.89-7.07,11.78-13.85,17.67-20.33c5.89-6.48,11.1-12.27,15.62-17.38c4.51-5.1,8.25-9.13,11.2-12.08c2.95-2.95,4.61-4.61,5.01-5.01
	c3.14-3.13,6.78-4.71,10.9-4.71s7.75,1.57,10.9,4.71c3.14,2.76,4.72,6.29,4.72,10.61c0,4.33-1.57,8.06-4.72,11.2
	c-10.61,10.22-20.53,20.44-29.76,30.64c-9.23,10.22-17.58,19.94-25.04,29.17c-7.46,9.23-13.75,17.68-18.85,25.33
	c-5.11,7.66-8.84,13.85-11.2,18.56c6.68-0.78,14.44-3.24,23.28-7.36c8.84-4.12,17.67-8.74,26.51-13.85
	c8.84-5.1,17.28-10.31,25.34-15.62c8.05-5.3,14.82-9.72,20.33-13.25c1.96-1.57,3.73-2.75,5.3-3.54c1.57-0.78,3.14-1.77,4.72-2.94
	c3.54-2.36,7.46-3.04,11.78-2.07c4.32,0.99,7.46,3.05,9.43,6.19c2.36,3.53,3.04,7.36,2.06,11.48c-0.98,4.12-3.04,7.37-6.19,9.73
	c-1.57,1.17-3.15,2.17-4.72,2.94c-1.57,0.8-3.34,1.97-5.3,3.54c-10.22,6.68-20.62,13.35-31.23,20.04s-21.02,12.67-31.23,17.97
	c-10.22,5.31-20.04,9.63-29.46,12.96C977.47,453.67,969.02,455.34,961.57,455.34z"/>
<path class="st0" d="M1224.7,162.1h143.77c4.32,0,7.85-1.37,10.61-4.12c2.75-2.75,4.12-6.28,4.12-10.61s-1.38-7.96-4.12-10.9
	c-2.75-2.95-6.29-4.42-10.61-4.42H1224.7c-4.33,0-7.96,1.47-10.9,4.42c-2.95,2.94-4.42,6.58-4.42,10.9s1.47,7.86,4.42,10.61
	C1216.74,160.73,1220.37,162.1,1224.7,162.1z"/>
<path class="st0" d="M1268.45,442.84c-4.33,0-8.16-0.38-11.49-1.17c-3.34-0.78-6.59-2.55-9.72-5.31c-5.89-5.1-9.13-11.28-9.72-18.56
	c-0.59-7.26,0.09-14.44,2.06-21.51c1.96-7.07,4.51-13.75,7.66-20.04c3.14-6.28,5.69-10.99,7.66-14.14
	c7.46-12.96,15.61-25.64,24.45-38.01s17.09-23.37,24.75-33c7.66-9.62,14.04-17.38,19.15-23.27c5.1-5.89,7.86-9.03,8.25-9.43
	c2.36-3.53,5.69-5.49,10.02-5.89c4.32-0.38,8.04,0.79,11.19,3.53c2.75,3.15,4.42,6.78,5.01,10.9c0.59,4.13-0.69,7.57-3.83,10.32
	c0,0.39-2.46,3.53-7.36,9.42c-4.92,5.9-11,13.47-18.27,22.69c-7.27,9.23-15.13,19.84-23.57,31.82
	c-8.46,11.99-16.41,24.26-23.86,36.83c-6.69,11-10.71,19.25-12.08,24.75c-1.38,5.51-2.06,8.64-2.06,9.42
	c2.35,0.79,6.48,0.4,12.37-1.17c5.89-1.57,12.96-4.32,21.21-8.25c8.25-3.92,17.28-9.13,27.1-15.62
	c9.81-6.48,20.03-14.23,30.64-23.27c3.54-3.14,7.46-4.52,11.78-4.12c4.32,0.39,8.05,2.16,11.2,5.3c2.36,3.54,3.33,7.37,2.94,11.49
	c-0.4,4.12-2.16,7.36-5.3,9.72c-6.68,5.51-14.54,11.6-23.57,18.27c-9.04,6.68-18.56,12.87-28.58,18.56
	c-10.01,5.7-20.13,10.41-30.35,14.15C1285.93,440.98,1276.7,442.84,1268.45,442.84z M1380.41,238.38
	c-3.15-0.39-6.48-1.57-10.02-3.54c-6.29-7.46-6.48-15.11-0.59-22.98l25.34-24.75c2.36-2.74,5.6-4.21,9.72-4.42
	c4.12-0.19,7.96,1.48,11.49,5.01c2.36,2.36,3.63,5.59,3.83,9.73c0.19,4.12-1.28,7.95-4.42,11.48l-23.57,24.16
	c-1.97,2.36-3.93,3.83-5.89,4.42C1384.33,238.08,1382.37,238.38,1380.41,238.38z"/>
<path class="st0" d="M1359.81,443.88c-3.54,0-6.29-0.98-8.25-2.95c-4.33-2.36-6.77-5.59-7.36-9.72c-0.59-4.12,0.3-7.95,2.65-11.49
	c38.49-57.35,75.22-108.8,110.19-154.38c34.96-45.56,68.15-85.43,99.58-119.61c44.39-48.7,84.75-84.76,121.09-108.12
	c36.33-23.37,69.83-35.06,100.46-35.06c22,0,34.77,6.87,38.3,20.62c1.96,7.46,0,16.11-5.89,25.93c-5.89,9.82-16.3,21.42-31.23,34.77
	c-10.22,9.04-22.39,18.77-36.53,29.17c-14.14,10.41-30.05,21.9-47.73,34.47c-15.32,10.61-30.35,20.83-45.07,30.64
	c-14.73,9.82-27.99,18.37-39.78,25.63c-11.78,7.27-24.95,15.42-39.48,24.46c-4.33,1.97-8.45,2.65-12.38,2.06
	c-3.93-0.59-6.88-2.85-8.84-6.78c-2.35-3.54-3.04-7.37-2.06-11.49c0.98-4.12,3.24-7.16,6.78-9.13c13.75-8.25,26.02-15.9,36.83-22.98
	c10.8-7.07,23.17-15.12,37.12-24.16c13.94-9.03,27.99-18.65,42.13-28.88c21.21-14.53,38.89-27.1,53.03-37.71
	c14.14-10.61,25.53-19.54,34.17-26.81c8.64-7.26,15.03-13.26,19.15-17.97c4.12-4.71,6.77-8.44,7.95-11.19h-6.48
	c-10.61,0-22.79,2.26-36.53,6.77c-13.75,4.52-29.46,12.48-47.14,23.86c-17.68,11.4-37.52,26.81-59.51,46.26
	c-22.01,19.44-46.26,44.1-72.77,73.95c-26.52,29.86-55.49,65.61-86.91,107.24c-31.43,41.65-65.61,90.16-102.53,145.54
	C1368.84,441.53,1364.52,443.88,1359.81,443.88z M1522.43,443.88c-6.68,0-11.78-1.17-15.32-3.53c-3.54-2.36-6.29-4.91-8.25-7.66
	c-4.33-6.67-5.51-14.33-3.53-22.98c1.96-8.64,4.91-17.48,8.84-26.52c1.18-3.14,2.55-6.67,4.13-10.61c1.56-3.92,2.84-7.75,3.83-11.49
	c0.97-3.72,1.67-7.16,2.06-10.31c0.39-3.14,0-5.5-1.18-7.07c0-0.38-0.5-0.88-1.47-1.47c-0.99-0.59-2.56-1.27-4.72-2.06
	c-2.17-0.78-5.21-1.37-9.13-1.77c-3.93-0.39-9.04-0.39-15.32,0c-4.32,0-8.06-1.27-11.19-3.84c-3.15-2.55-4.92-5.98-5.3-10.31
	c0-4.32,1.27-7.95,3.83-10.9c2.55-2.94,5.99-4.61,10.31-5c29.06-1.97,48.32,3.92,57.74,17.67c6.68,10.22,8.64,21.42,5.89,33.59
	c-2.75,12.18-6.29,23.57-10.61,34.17c-1.57,3.15-3.05,6.59-4.42,10.31c-1.38,3.74-2.46,6.78-3.24,9.13
	c6.28-0.38,14.04-2.65,23.27-6.78c9.23-4.12,18.56-8.84,27.99-14.14c9.43-5.31,18.36-10.7,26.81-16.21
	c8.44-5.49,15.41-10.01,20.92-13.55c1.96-1.57,3.73-2.75,5.3-3.54c1.57-0.78,3.14-1.77,4.72-2.94c3.14-2.36,6.68-3.04,10.61-2.07
	c3.92,0.99,7.46,3.05,10.61,6.19c1.96,3.53,2.45,7.36,1.47,11.48c-0.98,4.12-3.04,7.37-6.19,9.73c-1.18,1.17-2.56,2.17-4.12,2.94
	c-1.57,0.8-3.34,1.97-5.3,3.54c-10.22,6.68-20.62,13.35-31.23,20.04c-10.61,6.68-21.12,12.67-31.52,17.97
	c-10.41,5.31-20.43,9.63-30.05,12.96C1539.02,442.21,1530.29,443.88,1522.43,443.88z M1508.29,303.06c-6.69,0-11.2-2.55-13.55-7.66
	c-1.97-3.92-2.46-7.86-1.47-11.79c0.98-3.92,3.44-6.87,7.37-8.84c6.28-3.53,14.14-7.37,23.57-11.49s19.44-8.14,30.05-12.08
	c10.61-3.92,21.21-7.66,31.82-11.2c10.61-3.53,20.12-6.67,28.58-9.43c8.44-2.74,15.52-5,21.21-6.77c5.69-1.77,8.93-2.85,9.72-3.24
	c3.92-1.17,7.66-0.68,11.19,1.47c3.54,2.17,6.09,5.21,7.66,9.13c1.18,4.33,0.68,8.35-1.47,12.08c-2.17,3.73-5.21,5.99-9.13,6.77
	c-10.61,3.15-20.03,6.1-28.28,8.84c-8.25,2.76-17.48,5.9-27.69,9.43c-10.22,3.53-20.43,7.17-30.64,10.9
	c-10.22,3.74-19.84,7.46-28.87,11.2c-9.04,3.74-16.5,7.36-22.39,10.9C1512.81,302.47,1510.25,303.06,1508.29,303.06z"/>
<path class="st0" d="M1258.81,361.16c-4.33-0.98-8.25-0.29-11.78,2.07c-19.65,11.78-36.64,21.31-50.97,28.57
	c-14.35,7.27-29.96,13.85-46.84,19.74c-16.9,5.9-32.41,8.84-46.55,8.84h-0.59c0-1.96,0.68-5.2,2.07-9.72
	c1.37-4.52,3.92-10.7,7.66-18.57c3.73-7.85,9.13-17.28,16.2-28.28c7.07-10.99,16.3-23.95,27.69-38.89
	c19.24-24.74,41.34-50.87,66.29-78.37c24.94-27.48,50.97-53.81,78.07-78.95c6.67-6.67,6.67-13.94,0-21.8
	c-3.15-3.14-6.69-4.72-10.61-4.72c-3.93,0-7.47,1.57-10.61,4.72c-27.9,25.93-54.71,53.03-80.43,81.31
	c-25.73,28.28-48.42,55.78-68.06,82.49c-10.22,12.96-19.15,25.25-26.81,36.83c-7.66,11.6-14.05,22.5-19.15,32.7
	c-11.78,23.57-15.32,41.65-10.61,54.21c1.18,2.36,3.92,5.89,8.25,10.61c4.32,4.72,11.2,7.07,20.62,7.07
	c16.5,0,33.97-3.14,52.44-9.43c18.46-6.27,35.65-13.26,51.56-20.92c15.91-7.66,29.17-14.73,39.77-21.21s16.5-10.11,17.68-10.9
	c3.54-2.36,5.6-5.6,6.19-9.73c0.59-4.12-0.1-7.95-2.06-11.48C1266.26,364.21,1263.12,362.15,1258.81,361.16z"/>
<path class="st0" d="M1341.16,123.09c-3.15-0.39-6.48-1.57-10.02-3.54c-6.29-7.46-6.48-15.11-0.59-22.98l25.34-24.75
	c2.36-2.74,5.6-4.21,9.72-4.42c4.12-0.19,7.96,1.48,11.49,5.01c2.36,2.36,3.63,5.59,3.83,9.73c0.19,4.12-1.28,7.95-4.42,11.48
	l-23.57,24.16c-1.97,2.36-3.93,3.83-5.89,4.42C1345.08,122.79,1343.12,123.09,1341.16,123.09z"/>
<path class="st0" d="M688.51,494.13l-5.65,0.08l-18.74,0.25l-84.37,1.15l-26.19,0.33l-8.84,0.08l-27.82,0.41l-148.13,2.05
	l-40.35,0.57l-202.47,2.78l-37.73,0.49l-43.05,0.57l-0.98,0.08c-24.96,1.06-44.68,17.92-44.19,37.89
	c0.65,20.21,21.77,35.93,47.3,35.27l33.14-1.47c-1.88-5.48-3.6-11.38-5.16-17.59c-0.25-0.82-0.16,0-0.25-0.82l-36.49,0.78
	c-7.94,0.16-19.39-10.16-19.56-18.1c-0.16-7.86,9.38-16.36,17.08-16.69l2.38-0.24l41.06-1.78l45.34-0.75l49.1-1.17
	c7.94-0.16,13.85,10.12,14.02,18.06c0.16,7.86-5.97,14.4-13.75,14.73h-0.33l-56.47,2.37c0.57,3.19,1.31,5.48,2.54,8.76
	c0.65,1.8,1.23,3.52,1.8,5.24c1.23,3.36,4.58,5.48,8.18,5.32l122.1-5.89l52.87-2.37l171.78-7.69l37.32-1.72l129.88-5.89l16.7-0.74
	l29.3-1.31l2.05-0.08c0.9-2.95,2.13-6.55,3.76-10.72c2.37-6.14,6.3-14.08,11.78-23.9c2.21-4.01,6.3-10.72,11.29-18.74L688.51,494.13
	z M1816.89,475.39l-358.88,6.06l-23.45,0.33l-340.49,5.73l-41.53,0.74l-118.47,1.96l-20.05,0.33l-55.22,0.9l-35.25,0.65l-71.34,1.15
	c-6.96,0.08-13.31,4.34-16.64,10.97c-3.48,7.04-6.35,12.85-7.94,16.29c-4.08,9-7.04,16.37-8.7,21.77c-0.45,1.47-0.98,2.78-1.29,4.01
	l21.71-1.15l67.78-3.76l143.58-7.94l21.71-1.23l172.25-9.49l672.52-37.24L1816.89,475.39z"/>
<path class="st0" d="M881.74,216.15c-2.29,12.36-7.45,26.68-15.3,42.96c-7.86,16.37-18.25,34.7-31.18,55.16
	c-13.01,20.38-27.74,42.96-44.19,67.76c-12.19,17.68-23.57,34.7-34.21,51.23c-7.61,11.87-25.62,40.18-38.05,60.48
	c-4.99,8.02-9.08,14.73-11.29,18.74c-5.48,9.82-9.41,17.76-11.78,23.9c-1.64,4.17-2.86,7.77-3.76,10.72
	c-0.41,1.39-0.74,2.62-0.98,3.68c-1.15,4.34-1.31,7.45-0.57,9.41c0.82,0.41,1.72,0.65,2.7,0.9c0.98,0.16,3.03,0.33,6.14,0.33
	c4.34,0,7.94,1.55,10.88,4.66c2.95,3.19,4.42,6.87,4.42,11.21c0,4.34-1.47,7.94-4.42,10.88c-2.95,2.95-6.55,4.42-10.88,4.42
	c-10.56,0-18.66-2.05-24.14-6.14c-5.48-4.17-9.25-8.18-11.21-12.11c-4.09-7.04-5.24-15.63-3.27-25.86c0.08-0.57,0.16-1.23,0.33-1.8
	c2.37-11.05,7.2-23.82,14.48-38.3c2.21-4.58,4.75-9.25,7.45-14.16c5.97-10.8,13.18-22.51,21.36-35.11
	c12.03-18.25,47.14-71.85,62.03-94.2c12.6-18.5,24.8-36.83,36.58-55.08c11.78-18.33,21.93-35.27,30.61-50.99
	c5.89-11.05,10.23-20.21,12.93-27.74c2.78-7.45,4.5-13.42,5.32-17.92c0.82-4.5,1.06-7.86,0.9-10.07c-0.16-2.13-0.49-3.6-0.9-4.42
	c-1.55-1.96-4.34-3.44-8.27-4.42c-3.93-0.9-6.87-1.47-8.84-1.47c-12.93,0-30.69,9.25-53.28,27.74
	c-22.59,18.41-48.61,44.6-78.07,78.32c-29.46,33.8-13.58,14.16-48.28,61.46c-34.78,47.38-29.47,42.59-66.37,99.96
	c-3.11,4.75-7.61,7.04-13.5,7.04c-1.96,0-4.5-0.98-7.69-2.86c-3.93-2.05-6.14-4.99-6.79-8.84c-0.57-4.01,0.08-7.69,2.13-11.21
	c7.04-10.64,2.38-7.32,14.41-25.4c11.95-18.09-1.47,1.47,13.83-20.3c15.39-21.85,3.03-5.97,20.87-30.12
	c17.92-24.14,17.19-26.43,36.01-49.68c42.39-53.03,78.97-92.23,109.58-117.52c30.69-25.37,56.39-38.05,77.17-38.05
	c22.01,0,36.34,6.87,43.05,20.62C882.72,193.07,884.11,203.79,881.74,216.15z"/>
<path class="st0" d="M311.29,576.17"/>
<g>
	<path class="st0" d="M294.36,592.6c-17.19,19.89-34.19,38.68-51.38,49.16c-10.64,6.47-32.24,14.81-57.61,14.81
		c-13.09,0-27.25-2.29-41.41-8.1c-21.03-8.67-47.96-28.56-63.51-73.82c-1.88-5.48-3.6-11.38-5.16-17.59
		c-0.25-0.82-0.33-1.72-0.41-2.54c-0.65-8.35,5.56-15.96,14.57-16.61c7.77-0.57,14.4,5.24,16.29,12.77
		c8.84,35.76,25.7,59.01,50.08,69.07c27.58,11.38,58.19,3.27,70.95-4.5c9.41-5.81,15.86-11.92,28.54-25.67
		c0.65-0.65,1.55-1.15,2.46-1.15l33.64-1.72C294.61,586.55,296.41,590.23,294.36,592.6z"/>
</g>
<path class="st0" d="M403.22,432.83"/>
<path class="st0" d="M209.96,443.64c-3.59,5.86-10.23,8.39-16.41,7.13c0,0-0.08,0.02-0.18-0.05c-3.57-0.4-7.17-0.47-10.54-0.24
	c-7.47,0.58-14.37,1.98-20.57,4.41c-6.28,2.44-11.08,4.35-14.1,6.01c-11.72,6.13-20.62,12.76-26.63,19.84H84.81
	c3.73-7.21,8.45-14,14.18-20.41c9.94-11.22,21.49-20.16,34.75-27.1c21.61-11.18,42.6-15.59,63.15-13.08c0,0,0.08-0.02,0.1,0.06
	c3.18,0,6.4,1.15,9.17,3.26C212.24,428.1,213.94,437.12,209.96,443.64z"/>
</svg>
