<svg width="110" height="110" viewBox="0 0 110 110" fill="none" xmlns="http://www.w3.org/2000/svg">
<path d="M57.2915 5.72919C57.2915 4.81751 56.9293 3.94316 56.2847 3.29851C55.64 2.65385 54.7657 2.29169 53.854 2.29169C52.9423 2.29169 52.068 2.65385 51.4233 3.29851C50.7787 3.94316 50.4165 4.81751 50.4165 5.72919V45.5584L29.5486 24.6813C29.2316 24.3528 28.8525 24.0908 28.4332 23.9104C28.0139 23.7301 27.5628 23.635 27.1064 23.6308C26.65 23.6267 26.1973 23.7134 25.7748 23.8861C25.3522 24.0587 24.9683 24.3138 24.6454 24.6364C24.3225 24.959 24.0671 25.3427 23.894 25.765C23.721 26.1874 23.6338 26.64 23.6375 27.0964C23.6413 27.5529 23.7359 28.004 23.9159 28.4234C24.0958 28.8429 24.3575 29.2224 24.6857 29.5396L45.5582 50.4167H5.729C4.81732 50.4167 3.94298 50.7789 3.29832 51.4235C2.65367 52.0682 2.2915 52.9425 2.2915 53.8542C2.2915 54.7659 2.65367 55.6402 3.29832 56.2849C3.94298 56.9295 4.81732 57.2917 5.729 57.2917H45.5582L24.6857 78.1596C24.0592 78.8076 23.7123 79.6758 23.7197 80.5771C23.7271 81.4784 24.0882 82.3408 24.7253 82.9784C25.3623 83.616 26.2243 83.978 27.1256 83.9862C28.0269 83.9945 28.8954 83.6484 29.544 83.0225L50.4165 62.1546V101.979C50.4165 102.891 50.7787 103.765 51.4233 104.41C52.068 105.055 52.9423 105.417 53.854 105.417C54.7657 105.417 55.64 105.055 56.2847 104.41C56.9293 103.765 57.2915 102.891 57.2915 101.979V62.15L78.1594 83.0225C78.8074 83.649 79.6756 83.9959 80.5769 83.9885C81.4782 83.9811 82.3406 83.62 82.9782 82.9829C83.6159 82.3459 83.9778 81.4839 83.986 80.5826C83.9943 79.6813 83.6482 78.8128 83.0223 78.1642L62.1544 57.2917H101.979C102.891 57.2917 103.765 56.9295 104.41 56.2849C105.054 55.6402 105.417 54.7659 105.417 53.8542C105.417 52.9425 105.054 52.0682 104.41 51.4235C103.765 50.7789 102.891 50.4167 101.979 50.4167H62.1498L83.0223 29.5488C83.3508 29.2318 83.6129 28.8526 83.7932 28.4333C83.9736 28.014 84.0686 27.563 84.0728 27.1066C84.077 26.6502 83.9902 26.1975 83.8176 25.7749C83.6449 25.3524 83.3898 24.9685 83.0672 24.6456C82.7446 24.3227 82.361 24.0672 81.9386 23.8942C81.5162 23.7212 81.0636 23.634 80.6072 23.6377C80.1507 23.6415 79.6996 23.7361 79.2802 23.916C78.8607 24.096 78.4813 24.3577 78.164 24.6859L57.2915 45.5538V5.72919Z" fill="url(#paint0_linear_59_95)"/>
<defs>
<linearGradient id="paint0_linear_59_95" x1="53.854" y1="2.29169" x2="53.854" y2="105.417" gradientUnits="userSpaceOnUse">
<stop stop-color="#6A65FF"/>
<stop offset="1" stop-color="#BDDFFF"/>
</linearGradient>
</defs>
</svg>
