<?xml version="1.0" encoding="utf-8"?>
<!-- Generator: Adobe Illustrator 26.1.0, SVG Export Plug-In . SVG Version: 6.00 Build 0)  -->
<svg version="1.1" id="Layer_1" xmlns="http://www.w3.org/2000/svg" xmlns:xlink="http://www.w3.org/1999/xlink" x="0px" y="0px"
	 viewBox="0 0 24 24" style="enable-background:new 0 0 24 24;" xml:space="preserve">
<style type="text/css">
	.st0{fill:none;stroke:#00BAA3;stroke-width:2;stroke-linecap:round;stroke-linejoin:round;}
</style>
<g>
	<path class="st0" d="M3,21c-0.7-0.7,3.3-6.2,11.8-16.7c1.2-1.5,3.4-1.7,4.9-0.5s1.7,3.4,0.5,4.9C20.1,8.8,20,9,19.9,9.1
		C9.3,17.7,3.7,21.7,3,21 M17.5,6.5l-1,1"/>
	<path class="st0" d="M17,7c-2.3-2.7-3.5-4-5-4s-2,1-2,2c0,4,8.2,8.4,6,11c-1.1,1.3-3.4,1.3-5.8,0.8 M5.7,15.4C4.3,14.9,2,13.5,2,12
		 M19.5,9.5L21,11"/>
</g>
</svg>
