<?xml version="1.0" encoding="utf-8"?>
<!-- Generator: Adobe Illustrator 26.1.0, SVG Export Plug-In . SVG Version: 6.00 Build 0)  -->
<svg version="1.1" id="Layer_1" xmlns="http://www.w3.org/2000/svg" xmlns:xlink="http://www.w3.org/1999/xlink" x="0px" y="0px"
	 viewBox="0 0 24 24" style="enable-background:new 0 0 24 24;" xml:space="preserve">
<style type="text/css">
	.st0{fill:none;}
	.st1{fill:#0342E2;}
</style>
<g>
	<path class="st0" d="M12.6,23.3L12.6,23.3L12.6,23.3l-0.1,0l0,0l-0.1,0c0,0,0,0,0,0l0,0l0,0.4l0,0l0,0l0.1,0.1l0,0l0,0l0.1-0.1l0,0
		l0,0L12.6,23.3C12.6,23.3,12.6,23.3,12.6,23.3 M12.9,23.1L12.9,23.1l-0.2,0.1l0,0l0,0l0,0.4l0,0l0,0l0.2,0.1c0,0,0,0,0,0l0,0
		L12.9,23.1C12.9,23.2,12.9,23.1,12.9,23.1 M12.1,23.1C12.1,23.1,12.1,23.1,12.1,23.1L12.1,23.1l-0.1,0.6c0,0,0,0,0,0l0,0l0.2-0.1
		l0,0l0,0l0-0.4l0,0l0,0L12.1,23.1z"/>
	<path class="st1" d="M11,3c0.5,0,0.9,0.2,1.3,0.5l4.8,2.8c0.4,0.2,0.7,0.6,0.9,1l2.8,4.8c0.6,1,0.2,2.2-0.7,2.7l-9.4,5.5
		C9.8,20.7,8.9,21,8,21c-0.9,0-1.8-0.2-2.6-0.7C4.9,20,4.4,19.5,4,19c-0.7-0.9-1-1.9-1-3V5c0-1.1,0.9-2,2-2H11z M10.9,5H5v11
		c0,1.6,1.4,3,3,3c1.6,0,3-1.4,3-3L10.9,5L10.9,5z M8,14.5c0.8,0,1.5,0.7,1.5,1.5c0,0.8-0.7,1.5-1.5,1.5S6.5,16.8,6.5,16
		C6.5,15.2,7.2,14.5,8,14.5 M17.2,10l-3.6,6.2l5.4-3.1L17.2,10z M13,6.2v7.2L16.1,8l0-0.1L13,6.2z"/>
</g>
</svg>
